<svg width="657" height="720" xmlns="http://www.w3.org/2000/svg" xmlns:xlink="http://www.w3.org/1999/xlink" xml:space="preserve" overflow="hidden"><defs><clipPath id="clip0"><rect x="0" y="0" width="657" height="720"/></clipPath><clipPath id="clip1"><rect x="0" y="0" width="657" height="720"/></clipPath><clipPath id="clip2"><rect x="-1" y="31" width="658" height="690"/></clipPath></defs><g clip-path="url(#clip0)"><g clip-path="url(#clip1)"><g clip-path="url(#clip2)"><g><g><path d="M567.159 30.1786 577.651 12.0129C579.727 8.41794 583.565 6.20267 587.719 6.20267L608.703 6.20267C612.858 6.20267 616.695 8.41794 618.772 12.0129L629.264 30.1786C631.34 33.7733 631.34 38.2021 629.264 41.797L618.772 59.9626C616.695 63.5575 612.858 65.7728 608.703 65.7728L587.719 65.7728C583.565 65.7728 579.727 63.5575 577.651 59.9626L567.159 41.797C565.082 38.2021 565.082 33.7733 567.159 30.1786Z" stroke="#FFFFFF" stroke-width="6.75538" stroke-linecap="butt" stroke-linejoin="miter" stroke-miterlimit="4" stroke-opacity="0.3" fill="none" fill-rule="nonzero" transform="matrix(-1 1.22465e-16 -1.22508e-16 -1.00035 657 752.004)"/></g><g><path d="M317.281 30.1786 327.774 12.0129C329.85 8.41794 333.688 6.20267 337.842 6.20267L358.826 6.20267C362.98 6.20267 366.818 8.41794 368.895 12.0129L379.387 30.1786C381.463 33.7733 381.463 38.2021 379.387 41.797L368.895 59.9626C366.818 63.5575 362.98 65.7728 358.826 65.7728L337.842 65.7728C333.688 65.7728 329.85 63.5575 327.774 59.9626L317.281 41.797C315.205 38.2021 315.205 33.7733 317.281 30.1786Z" stroke="#FFFFFF" stroke-width="6.75538" stroke-linecap="butt" stroke-linejoin="miter" stroke-miterlimit="4" stroke-opacity="0.3" fill="none" fill-rule="nonzero" transform="matrix(-1 1.22465e-16 -1.22508e-16 -1.00035 657 752.004)"/></g><g><path d="M504.689 66.1663 515.181 48.0006C517.258 44.4057 521.096 42.1904 525.25 42.1904L546.234 42.1904C550.388 42.1904 554.226 44.4057 556.303 48.0006L566.795 66.1663C568.871 69.7612 568.871 74.1897 566.795 77.7844L556.303 95.9501C554.226 99.5455 550.388 101.76 546.234 101.76L525.25 101.76C521.096 101.76 517.258 99.5455 515.181 95.9501L504.689 77.7844C502.613 74.1897 502.613 69.7612 504.689 66.1663Z" stroke="#FFFFFF" stroke-width="6.75538" stroke-linecap="butt" stroke-linejoin="miter" stroke-miterlimit="4" stroke-opacity="0.3" fill="none" fill-rule="nonzero" transform="matrix(-1 1.22465e-16 -1.22508e-16 -1.00035 657 752.004)"/></g><g><path d="M504.689 282.093 515.181 263.927C517.258 260.332 521.096 258.117 525.25 258.117L546.234 258.117C550.388 258.117 554.226 260.332 556.303 263.927L566.795 282.093C568.871 285.688 568.871 290.116 566.795 293.711L556.303 311.877C554.226 315.472 550.388 317.687 546.234 317.687L525.25 317.687C521.096 317.687 517.258 315.472 515.181 311.877L504.689 293.711C502.613 290.116 502.613 285.688 504.689 282.093Z" stroke="#FFFFFF" stroke-width="6.75538" stroke-linecap="butt" stroke-linejoin="miter" stroke-miterlimit="4" stroke-opacity="0.3" fill="none" fill-rule="nonzero" transform="matrix(-1 1.22465e-16 -1.22508e-16 -1.00035 657 752.004)"/></g><g><path d="M254.812 66.1663 265.304 48.0006C267.381 44.4057 271.219 42.1904 275.373 42.1904L296.357 42.1904C300.511 42.1904 304.349 44.4057 306.425 48.0006L316.918 66.1663C318.994 69.7612 318.994 74.1897 316.918 77.7844L306.425 95.9501C304.349 99.5455 300.511 101.76 296.357 101.76L275.373 101.76C271.219 101.76 267.381 99.5455 265.304 95.9501L254.812 77.7844C252.736 74.1897 252.736 69.7612 254.812 66.1663Z" stroke="#FFFFFF" stroke-width="6.75538" stroke-linecap="butt" stroke-linejoin="miter" stroke-miterlimit="4" stroke-opacity="0.3" fill="none" fill-rule="nonzero" transform="matrix(-1 1.22465e-16 -1.22508e-16 -1.00035 657 752.004)"/></g><g><path d="M254.812 282.093 265.304 263.927C267.381 260.332 271.219 258.117 275.373 258.117L296.357 258.117C300.511 258.117 304.349 260.332 306.425 263.927L316.918 282.093C318.994 285.688 318.994 290.116 316.918 293.711L306.425 311.877C304.349 315.472 300.511 317.687 296.357 317.687L275.373 317.687C271.219 317.687 267.381 315.472 265.304 311.877L254.812 293.711C252.736 290.116 252.736 285.688 254.812 282.093Z" stroke="#FFFFFF" stroke-width="6.75538" stroke-linecap="butt" stroke-linejoin="miter" stroke-miterlimit="4" stroke-opacity="0.3" fill="none" fill-rule="nonzero" transform="matrix(-1 1.22465e-16 -1.22508e-16 -1.00035 657 752.004)"/></g><g><path d="M504.689 138.142 515.181 119.976C517.258 116.381 521.096 114.166 525.25 114.166L546.234 114.166C550.388 114.166 554.226 116.381 556.303 119.976L566.795 138.142C568.871 141.737 568.871 146.165 566.795 149.76L556.303 167.926C554.226 171.521 550.388 173.736 546.234 173.736L525.25 173.736C521.096 173.736 517.258 171.521 515.181 167.926L504.689 149.76C502.613 146.165 502.613 141.737 504.689 138.142Z" stroke="#FFFFFF" stroke-width="6.75538" stroke-linecap="butt" stroke-linejoin="miter" stroke-miterlimit="4" stroke-opacity="0.3" fill="none" fill-rule="nonzero" transform="matrix(-1 1.22465e-16 -1.22508e-16 -1.00035 657 752.004)"/></g><g><path d="M504.689 354.068 515.181 335.903C517.258 332.307 521.096 330.092 525.25 330.092L546.234 330.092C550.388 330.092 554.226 332.307 556.303 335.903L566.795 354.068C568.871 357.663 568.871 362.092 566.795 365.686L556.303 383.852C554.226 387.447 550.388 389.662 546.234 389.662L525.25 389.662C521.096 389.662 517.258 387.447 515.181 383.852L504.689 365.686C502.613 362.092 502.613 357.663 504.689 354.068Z" stroke="#FFFFFF" stroke-width="6.75538" stroke-linecap="butt" stroke-linejoin="miter" stroke-miterlimit="4" stroke-opacity="0.3" fill="none" fill-rule="nonzero" transform="matrix(-1 1.22465e-16 -1.22508e-16 -1.00035 657 752.004)"/></g><g><path d="M504.689 426.044 515.181 407.878C517.258 404.283 521.096 402.068 525.25 402.068L546.234 402.068C550.388 402.068 554.226 404.283 556.303 407.878L566.795 426.044C568.871 429.639 568.871 434.067 566.795 437.662L556.303 455.827C554.226 459.423 550.388 461.638 546.234 461.638L525.25 461.638C521.096 461.638 517.258 459.423 515.181 455.827L504.689 437.662C502.613 434.067 502.613 429.639 504.689 426.044Z" stroke="#FFFFFF" stroke-width="6.75538" stroke-linecap="butt" stroke-linejoin="miter" stroke-miterlimit="4" stroke-opacity="0.3" fill="none" fill-rule="nonzero" transform="matrix(-1 1.22465e-16 -1.22508e-16 -1.00035 657 752.004)"/></g><g><path d="M504.689 569.995 515.181 551.829C517.258 548.234 521.096 546.019 525.25 546.019L546.234 546.019C550.388 546.019 554.226 548.234 556.303 551.829L566.795 569.995C568.871 573.59 568.871 578.018 566.795 581.613L556.303 599.778C554.226 603.374 550.388 605.589 546.234 605.589L525.25 605.589C521.096 605.589 517.258 603.374 515.181 599.778L504.689 581.613C502.613 578.018 502.613 573.59 504.689 569.995Z" stroke="#FFFFFF" stroke-width="6.75538" stroke-linecap="butt" stroke-linejoin="miter" stroke-miterlimit="4" stroke-opacity="0.3" fill="none" fill-rule="nonzero" transform="matrix(-1 1.22465e-16 -1.22508e-16 -1.00035 657 752.004)"/></g><g><path d="M254.812 138.142 265.304 119.976C267.381 116.381 271.219 114.166 275.373 114.166L296.357 114.166C300.511 114.166 304.349 116.381 306.425 119.976L316.918 138.142C318.994 141.737 318.994 146.165 316.918 149.76L306.425 167.926C304.349 171.521 300.511 173.736 296.357 173.736L275.373 173.736C271.219 173.736 267.381 171.521 265.304 167.926L254.812 149.76C252.736 146.165 252.736 141.737 254.812 138.142Z" stroke="#FFFFFF" stroke-width="6.75538" stroke-linecap="butt" stroke-linejoin="miter" stroke-miterlimit="4" stroke-opacity="0.3" fill="none" fill-rule="nonzero" transform="matrix(-1 1.22465e-16 -1.22508e-16 -1.00035 657 752.004)"/></g><g><path d="M254.812 354.068 265.304 335.903C267.381 332.307 271.219 330.092 275.373 330.092L296.357 330.092C300.511 330.092 304.349 332.307 306.425 335.903L316.918 354.068C318.994 357.663 318.994 362.092 316.918 365.686L306.425 383.852C304.349 387.447 300.511 389.662 296.357 389.662L275.373 389.662C271.219 389.662 267.381 387.447 265.304 383.852L254.812 365.686C252.736 362.092 252.736 357.663 254.812 354.068Z" stroke="#FFFFFF" stroke-width="6.75538" stroke-linecap="butt" stroke-linejoin="miter" stroke-miterlimit="4" stroke-opacity="0.3" fill="none" fill-rule="nonzero" transform="matrix(-1 1.22465e-16 -1.22508e-16 -1.00035 657 752.004)"/></g><g><path d="M504.689 210.117 515.181 191.952C517.258 188.356 521.096 186.141 525.25 186.141L546.234 186.141C550.388 186.141 554.226 188.356 556.303 191.952L566.795 210.117C568.871 213.712 568.871 218.141 566.795 221.735L556.303 239.901C554.226 243.496 550.388 245.711 546.234 245.711L525.25 245.711C521.096 245.711 517.258 243.496 515.181 239.901L504.689 221.735C502.613 218.141 502.613 213.712 504.689 210.117Z" stroke="#FFFFFF" stroke-width="6.75538" stroke-linecap="butt" stroke-linejoin="miter" stroke-miterlimit="4" stroke-opacity="0.3" fill="none" fill-rule="nonzero" transform="matrix(-1 1.22465e-16 -1.22508e-16 -1.00035 657 752.004)"/></g><g><path d="M254.812 210.117 265.304 191.952C267.381 188.356 271.219 186.141 275.373 186.141L296.357 186.141C300.511 186.141 304.349 188.356 306.425 191.952L316.918 210.117C318.994 213.712 318.994 218.141 316.918 221.735L306.425 239.901C304.349 243.496 300.511 245.711 296.357 245.711L275.373 245.711C271.219 245.711 267.381 243.496 265.304 239.901L254.812 221.735C252.736 218.141 252.736 213.712 254.812 210.117Z" stroke="#FFFFFF" stroke-width="6.75538" stroke-linecap="butt" stroke-linejoin="miter" stroke-miterlimit="4" stroke-opacity="0.3" fill="none" fill-rule="nonzero" transform="matrix(-1 1.22465e-16 -1.22508e-16 -1.00035 657 752.004)"/></g><g><path d="M254.812 426.044 265.304 407.878C267.381 404.283 271.219 402.068 275.373 402.068L296.357 402.068C300.511 402.068 304.349 404.283 306.425 407.878L316.918 426.044C318.994 429.639 318.994 434.067 316.918 437.662L306.425 455.827C304.349 459.423 300.511 461.638 296.357 461.638L275.373 461.638C271.219 461.638 267.381 459.423 265.304 455.827L254.812 437.662C252.736 434.067 252.736 429.639 254.812 426.044Z" stroke="#FFFFFF" stroke-width="6.75538" stroke-linecap="butt" stroke-linejoin="miter" stroke-miterlimit="4" stroke-opacity="0.3" fill="none" fill-rule="nonzero" transform="matrix(-1 1.22465e-16 -1.22508e-16 -1.00035 657 752.004)"/></g><g><path d="M442.22 30.1786 452.712 12.0129C454.789 8.41794 458.626 6.20267 462.781 6.20267L483.765 6.20267C487.919 6.20267 491.757 8.41794 493.833 12.0129L504.325 30.1786C506.402 33.7733 506.402 38.2021 504.325 41.797L493.833 59.9626C491.757 63.5575 487.919 65.7728 483.765 65.7728L462.781 65.7728C458.626 65.7728 454.789 63.5575 452.712 59.9626L442.22 41.797C440.144 38.2021 440.144 33.7733 442.22 30.1786Z" stroke="#FFFFFF" stroke-width="6.75538" stroke-linecap="butt" stroke-linejoin="miter" stroke-miterlimit="4" stroke-opacity="0.3" fill="none" fill-rule="nonzero" transform="matrix(-1 1.22465e-16 -1.22508e-16 -1.00035 657 752.004)"/></g><g><path d="M192.343 30.1786 202.835 12.0129C204.911 8.41794 208.749 6.20267 212.903 6.20267L233.888 6.20267C238.042 6.20267 241.88 8.41794 243.956 12.0129L254.448 30.1786C256.525 33.7733 256.525 38.2021 254.448 41.797L243.956 59.9626C241.88 63.5575 238.042 65.7728 233.888 65.7728L212.903 65.7728C208.749 65.7728 204.911 63.5575 202.835 59.9626L192.343 41.797C190.266 38.2021 190.266 33.7733 192.343 30.1786Z" stroke="#FFFFFF" stroke-width="6.75538" stroke-linecap="butt" stroke-linejoin="miter" stroke-miterlimit="4" stroke-opacity="0.3" fill="none" fill-rule="nonzero" transform="matrix(-1 1.22465e-16 -1.22508e-16 -1.00035 657 752.004)"/></g><g><path d="M379.751 66.1663 390.243 48.0006C392.319 44.4057 396.157 42.1904 400.311 42.1904L421.296 42.1904C425.45 42.1904 429.288 44.4057 431.364 48.0006L441.856 66.1663C443.932 69.7612 443.932 74.1897 441.856 77.7844L431.364 95.9501C429.288 99.5455 425.45 101.76 421.296 101.76L400.311 101.76C396.157 101.76 392.319 99.5455 390.243 95.9501L379.751 77.7844C377.674 74.1897 377.674 69.7612 379.751 66.1663Z" stroke="#FFFFFF" stroke-width="6.75538" stroke-linecap="butt" stroke-linejoin="miter" stroke-miterlimit="4" stroke-opacity="0.3" fill="none" fill-rule="nonzero" transform="matrix(-1 1.22465e-16 -1.22508e-16 -1.00035 657 752.004)"/></g><g><path d="M379.751 282.093 390.243 263.927C392.319 260.332 396.157 258.117 400.311 258.117L421.296 258.117C425.45 258.117 429.288 260.332 431.364 263.927L441.856 282.093C443.932 285.688 443.932 290.116 441.856 293.711L431.364 311.877C429.288 315.472 425.45 317.687 421.296 317.687L400.311 317.687C396.157 317.687 392.319 315.472 390.243 311.877L379.751 293.711C377.674 290.116 377.674 285.688 379.751 282.093Z" stroke="#FFFFFF" stroke-width="6.75538" stroke-linecap="butt" stroke-linejoin="miter" stroke-miterlimit="4" stroke-opacity="0.3" fill="none" fill-rule="nonzero" transform="matrix(-1 1.22465e-16 -1.22508e-16 -1.00035 657 752.004)"/></g><g><path d="M129.874 282.093 140.366 263.927C142.442 260.332 146.28 258.117 150.434 258.117L171.418 258.117C175.573 258.117 179.41 260.332 181.487 263.927L191.979 282.093C194.055 285.688 194.055 290.116 191.979 293.711L181.487 311.877C179.41 315.472 175.573 317.687 171.418 317.687L150.434 317.687C146.28 317.687 142.442 315.472 140.366 311.877L129.874 293.711C127.797 290.116 127.797 285.688 129.874 282.093Z" stroke="#FFFFFF" stroke-width="6.75538" stroke-linecap="butt" stroke-linejoin="miter" stroke-miterlimit="4" stroke-opacity="0.3" fill="none" fill-rule="nonzero" transform="matrix(-1 1.22465e-16 -1.22508e-16 -1.00035 657 752.004)"/></g><g><path d="M379.751 138.142 390.243 119.976C392.319 116.381 396.157 114.166 400.311 114.166L421.296 114.166C425.45 114.166 429.288 116.381 431.364 119.976L441.856 138.142C443.932 141.737 443.932 146.165 441.856 149.76L431.364 167.926C429.288 171.521 425.45 173.736 421.296 173.736L400.311 173.736C396.157 173.736 392.319 171.521 390.243 167.926L379.751 149.76C377.674 146.165 377.674 141.737 379.751 138.142Z" stroke="#FFFFFF" stroke-width="6.75538" stroke-linecap="butt" stroke-linejoin="miter" stroke-miterlimit="4" stroke-opacity="0.3" fill="none" fill-rule="nonzero" transform="matrix(-1 1.22465e-16 -1.22508e-16 -1.00035 657 752.004)"/></g><g><path d="M379.751 354.068 390.243 335.903C392.319 332.307 396.157 330.092 400.311 330.092L421.296 330.092C425.45 330.092 429.288 332.307 431.364 335.903L441.856 354.068C443.932 357.663 443.932 362.092 441.856 365.686L431.364 383.852C429.288 387.447 425.45 389.662 421.296 389.662L400.311 389.662C396.157 389.662 392.319 387.447 390.243 383.852L379.751 365.686C377.674 362.092 377.674 357.663 379.751 354.068Z" stroke="#FFFFFF" stroke-width="6.75538" stroke-linecap="butt" stroke-linejoin="miter" stroke-miterlimit="4" stroke-opacity="0.3" fill="none" fill-rule="nonzero" transform="matrix(-1 1.22465e-16 -1.22508e-16 -1.00035 657 752.004)"/></g><g><path d="M567.159 102.154 577.651 83.9886C579.727 80.3932 583.565 78.1783 587.719 78.1783L608.703 78.1783C612.858 78.1783 616.695 80.3932 618.772 83.9886L629.264 102.154C631.34 105.749 631.34 110.177 629.264 113.772L618.772 131.938C616.695 135.533 612.858 137.748 608.703 137.748L587.719 137.748C583.565 137.748 579.727 135.533 577.651 131.938L567.159 113.772C565.082 110.177 565.082 105.749 567.159 102.154Z" stroke="#FFFFFF" stroke-width="6.75538" stroke-linecap="butt" stroke-linejoin="miter" stroke-miterlimit="4" stroke-opacity="0.3" fill="none" fill-rule="nonzero" transform="matrix(-1 1.22465e-16 -1.22508e-16 -1.00035 657 752.004)"/></g><g><path d="M567.159 318.081 577.651 299.915C579.727 296.32 583.565 294.105 587.719 294.105L608.703 294.105C612.858 294.105 616.695 296.32 618.772 299.915L629.264 318.081C631.34 321.675 631.34 326.104 629.264 329.699L618.772 347.864C616.695 351.46 612.858 353.675 608.703 353.675L587.719 353.675C583.565 353.675 579.727 351.46 577.651 347.864L567.159 329.699C565.082 326.104 565.082 321.675 567.159 318.081Z" stroke="#FFFFFF" stroke-width="6.75538" stroke-linecap="butt" stroke-linejoin="miter" stroke-miterlimit="4" stroke-opacity="0.3" fill="none" fill-rule="nonzero" transform="matrix(-1 1.22465e-16 -1.22508e-16 -1.00035 657 752.004)"/></g><g><path d="M567.159 534.007 577.651 515.841C579.727 512.246 583.565 510.031 587.719 510.031L608.703 510.031C612.858 510.031 616.695 512.246 618.772 515.841L629.264 534.007C631.34 537.602 631.34 542.03 629.264 545.625L618.772 563.791C616.695 567.386 612.858 569.601 608.703 569.601L587.719 569.601C583.565 569.601 579.727 567.386 577.651 563.791L567.159 545.625C565.082 542.03 565.082 537.602 567.159 534.007Z" stroke="#FFFFFF" stroke-width="6.75538" stroke-linecap="butt" stroke-linejoin="miter" stroke-miterlimit="4" stroke-opacity="0.3" fill="none" fill-rule="nonzero" transform="matrix(-1 1.22465e-16 -1.22508e-16 -1.00035 657 752.004)"/></g><g><path d="M317.281 102.154 327.774 83.9886C329.85 80.3932 333.688 78.1783 337.842 78.1783L358.826 78.1783C362.98 78.1783 366.818 80.3932 368.895 83.9886L379.387 102.154C381.463 105.749 381.463 110.177 379.387 113.772L368.895 131.938C366.818 135.533 362.98 137.748 358.826 137.748L337.842 137.748C333.688 137.748 329.85 135.533 327.774 131.938L317.281 113.772C315.205 110.177 315.205 105.749 317.281 102.154Z" stroke="#FFFFFF" stroke-width="6.75538" stroke-linecap="butt" stroke-linejoin="miter" stroke-miterlimit="4" stroke-opacity="0.3" fill="none" fill-rule="nonzero" transform="matrix(-1 1.22465e-16 -1.22508e-16 -1.00035 657 752.004)"/></g><g><path d="M317.281 318.081 327.774 299.915C329.85 296.32 333.688 294.105 337.842 294.105L358.826 294.105C362.98 294.105 366.818 296.32 368.895 299.915L379.387 318.081C381.463 321.675 381.463 326.104 379.387 329.699L368.895 347.864C366.818 351.46 362.98 353.675 358.826 353.675L337.842 353.675C333.688 353.675 329.85 351.46 327.774 347.864L317.281 329.699C315.205 326.104 315.205 321.675 317.281 318.081Z" stroke="#FFFFFF" stroke-width="6.75538" stroke-linecap="butt" stroke-linejoin="miter" stroke-miterlimit="4" stroke-opacity="0.3" fill="none" fill-rule="nonzero" transform="matrix(-1 1.22465e-16 -1.22508e-16 -1.00035 657 752.004)"/></g><g><path d="M567.159 174.13 577.651 155.964C579.727 152.369 583.565 150.154 587.719 150.154L608.703 150.154C612.858 150.154 616.695 152.369 618.772 155.964L629.264 174.13C631.34 177.724 631.34 182.153 629.264 185.748L618.772 203.913C616.695 207.509 612.858 209.724 608.703 209.724L587.719 209.724C583.565 209.724 579.727 207.509 577.651 203.913L567.159 185.748C565.082 182.153 565.082 177.724 567.159 174.13Z" stroke="#FFFFFF" stroke-width="6.75538" stroke-linecap="butt" stroke-linejoin="miter" stroke-miterlimit="4" stroke-opacity="0.3" fill="none" fill-rule="nonzero" transform="matrix(-1 1.22465e-16 -1.22508e-16 -1.00035 657 752.004)"/></g><g><path d="M567.159 390.056 577.651 371.891C579.727 368.295 583.565 366.08 587.719 366.08L608.703 366.08C612.858 366.08 616.695 368.295 618.772 371.891L629.264 390.056C631.34 393.651 631.34 398.079 629.264 401.674L618.772 419.84C616.695 423.435 612.858 425.65 608.703 425.65L587.719 425.65C583.565 425.65 579.727 423.435 577.651 419.84L567.159 401.674C565.082 398.079 565.082 393.651 567.159 390.056Z" stroke="#FFFFFF" stroke-width="6.75538" stroke-linecap="butt" stroke-linejoin="miter" stroke-miterlimit="4" stroke-opacity="0.3" fill="none" fill-rule="nonzero" transform="matrix(-1 1.22465e-16 -1.22508e-16 -1.00035 657 752.004)"/></g><g><path d="M317.281 174.13 327.774 155.964C329.85 152.369 333.688 150.154 337.842 150.154L358.826 150.154C362.98 150.154 366.818 152.369 368.895 155.964L379.387 174.13C381.463 177.724 381.463 182.153 379.387 185.748L368.895 203.913C366.818 207.509 362.98 209.724 358.826 209.724L337.842 209.724C333.688 209.724 329.85 207.509 327.774 203.913L317.281 185.748C315.205 182.153 315.205 177.724 317.281 174.13Z" stroke="#FFFFFF" stroke-width="6.75538" stroke-linecap="butt" stroke-linejoin="miter" stroke-miterlimit="4" stroke-opacity="0.3" fill="none" fill-rule="nonzero" transform="matrix(-1 1.22465e-16 -1.22508e-16 -1.00035 657 752.004)"/></g><g><path d="M317.281 390.056 327.774 371.891C329.85 368.295 333.688 366.08 337.842 366.08L358.826 366.08C362.98 366.08 366.818 368.295 368.895 371.891L379.387 390.056C381.463 393.651 381.463 398.079 379.387 401.674L368.895 419.84C366.818 423.435 362.98 425.65 358.826 425.65L337.842 425.65C333.688 425.65 329.85 423.435 327.774 419.84L317.281 401.674C315.205 398.079 315.205 393.651 317.281 390.056Z" stroke="#FFFFFF" stroke-width="6.75538" stroke-linecap="butt" stroke-linejoin="miter" stroke-miterlimit="4" stroke-opacity="0.3" fill="none" fill-rule="nonzero" transform="matrix(-1 1.22465e-16 -1.22508e-16 -1.00035 657 752.004)"/></g><g><path d="M567.159 246.105 577.651 227.94C579.727 224.344 583.565 222.129 587.719 222.129L608.703 222.129C612.858 222.129 616.695 224.344 618.772 227.94L629.264 246.105C631.34 249.7 631.34 254.128 629.264 257.723L618.772 275.889C616.695 279.484 612.858 281.699 608.703 281.699L587.719 281.699C583.565 281.699 579.727 279.484 577.651 275.889L567.159 257.723C565.082 254.128 565.082 249.7 567.159 246.105Z" stroke="#FFFFFF" stroke-width="6.75538" stroke-linecap="butt" stroke-linejoin="miter" stroke-miterlimit="4" stroke-opacity="0.3" fill="none" fill-rule="nonzero" transform="matrix(-1 1.22465e-16 -1.22508e-16 -1.00035 657 752.004)"/></g><g><path d="M567.159 462.032 577.651 443.866C579.727 440.271 583.565 438.056 587.719 438.056L608.703 438.056C612.858 438.056 616.695 440.271 618.772 443.866L629.264 462.032C631.34 465.626 631.34 470.055 629.264 473.65L618.772 491.815C616.695 495.411 612.858 497.626 608.703 497.626L587.719 497.626C583.565 497.626 579.727 495.411 577.651 491.815L567.159 473.65C565.082 470.055 565.082 465.626 567.159 462.032Z" stroke="#FFFFFF" stroke-width="6.75538" stroke-linecap="butt" stroke-linejoin="miter" stroke-miterlimit="4" stroke-opacity="0.3" fill="none" fill-rule="nonzero" transform="matrix(-1 1.22465e-16 -1.22508e-16 -1.00035 657 752.004)"/></g><g><path d="M317.281 246.105 327.774 227.94C329.85 224.344 333.688 222.129 337.842 222.129L358.826 222.129C362.98 222.129 366.818 224.344 368.895 227.94L379.387 246.105C381.463 249.7 381.463 254.128 379.387 257.723L368.895 275.889C366.818 279.484 362.98 281.699 358.826 281.699L337.842 281.699C333.688 281.699 329.85 279.484 327.774 275.889L317.281 257.723C315.205 254.128 315.205 249.7 317.281 246.105Z" stroke="#FFFFFF" stroke-width="6.75538" stroke-linecap="butt" stroke-linejoin="miter" stroke-miterlimit="4" stroke-opacity="0.3" fill="none" fill-rule="nonzero" transform="matrix(-1 1.22465e-16 -1.22508e-16 -1.00035 657 752.004)"/></g><g><path d="M379.751 210.117 390.243 191.952C392.319 188.356 396.157 186.141 400.311 186.141L421.296 186.141C425.45 186.141 429.288 188.356 431.364 191.952L441.856 210.117C443.932 213.712 443.932 218.141 441.856 221.735L431.364 239.901C429.288 243.496 425.45 245.711 421.296 245.711L400.311 245.711C396.157 245.711 392.319 243.496 390.243 239.901L379.751 221.735C377.674 218.141 377.674 213.712 379.751 210.117Z" stroke="#FFFFFF" stroke-width="6.75538" stroke-linecap="butt" stroke-linejoin="miter" stroke-miterlimit="4" stroke-opacity="0.3" fill="none" fill-rule="nonzero" transform="matrix(-1 1.22465e-16 -1.22508e-16 -1.00035 657 752.004)"/></g><g><path d="M379.751 426.044 390.243 407.878C392.319 404.283 396.157 402.068 400.311 402.068L421.296 402.068C425.45 402.068 429.288 404.283 431.364 407.878L441.856 426.044C443.932 429.639 443.932 434.067 441.856 437.662L431.364 455.827C429.288 459.423 425.45 461.638 421.296 461.638L400.311 461.638C396.157 461.638 392.319 459.423 390.243 455.827L379.751 437.662C377.674 434.067 377.674 429.639 379.751 426.044Z" stroke="#FFFFFF" stroke-width="6.75538" stroke-linecap="butt" stroke-linejoin="miter" stroke-miterlimit="4" stroke-opacity="0.3" fill="none" fill-rule="nonzero" transform="matrix(-1 1.22465e-16 -1.22508e-16 -1.00035 657 752.004)"/></g><g><path d="M129.874 426.044 140.366 407.878C142.442 404.283 146.28 402.068 150.434 402.068L171.418 402.068C175.573 402.068 179.41 404.283 181.487 407.878L191.979 426.044C194.055 429.639 194.055 434.067 191.979 437.662L181.487 455.827C179.41 459.423 175.573 461.638 171.418 461.638L150.434 461.638C146.28 461.638 142.442 459.423 140.366 455.827L129.874 437.662C127.797 434.067 127.797 429.639 129.874 426.044Z" stroke="#FFFFFF" stroke-width="6.75538" stroke-linecap="butt" stroke-linejoin="miter" stroke-miterlimit="4" stroke-opacity="0.3" fill="none" fill-rule="nonzero" transform="matrix(-1 1.22465e-16 -1.22508e-16 -1.00035 657 752.004)"/></g><g><path d="M629.628 66.1663 640.12 48.0006C642.196 44.4057 646.034 42.1904 650.188 42.1904L671.173 42.1904C675.327 42.1904 679.163 44.4057 681.241 48.0006L691.732 66.1663C693.81 69.7612 693.81 74.1897 691.732 77.7844L681.241 95.9501C679.163 99.5455 675.327 101.76 671.173 101.76L650.188 101.76C646.034 101.76 642.196 99.5455 640.12 95.9501L629.628 77.7844C627.551 74.1897 627.551 69.7612 629.628 66.1663Z" stroke="#FFFFFF" stroke-width="6.75538" stroke-linecap="butt" stroke-linejoin="miter" stroke-miterlimit="4" stroke-opacity="0.3" fill="none" fill-rule="nonzero" transform="matrix(-1 1.22465e-16 -1.22508e-16 -1.00035 657 752.004)"/></g><g><path d="M629.628 282.093 640.12 263.927C642.196 260.332 646.034 258.117 650.188 258.117L671.173 258.117C675.327 258.117 679.163 260.332 681.241 263.927L691.732 282.093C693.81 285.688 693.81 290.116 691.732 293.711L681.241 311.877C679.163 315.472 675.327 317.687 671.173 317.687L650.188 317.687C646.034 317.687 642.196 315.472 640.12 311.877L629.628 293.711C627.551 290.116 627.551 285.688 629.628 282.093Z" stroke="#FFFFFF" stroke-width="6.75538" stroke-linecap="butt" stroke-linejoin="miter" stroke-miterlimit="4" stroke-opacity="0.3" fill="none" fill-rule="nonzero" transform="matrix(-1 1.22465e-16 -1.22508e-16 -1.00035 657 752.004)"/></g><g><path d="M629.628 138.142 640.12 119.976C642.196 116.381 646.034 114.166 650.188 114.166L671.173 114.166C675.327 114.166 679.163 116.381 681.241 119.976L691.732 138.142C693.81 141.737 693.81 146.165 691.732 149.76L681.241 167.926C679.163 171.521 675.327 173.736 671.173 173.736L650.188 173.736C646.034 173.736 642.196 171.521 640.12 167.926L629.628 149.76C627.551 146.165 627.551 141.737 629.628 138.142Z" stroke="#FFFFFF" stroke-width="6.75538" stroke-linecap="butt" stroke-linejoin="miter" stroke-miterlimit="4" stroke-opacity="0.3" fill="none" fill-rule="nonzero" transform="matrix(-1 1.22465e-16 -1.22508e-16 -1.00035 657 752.004)"/></g><g><path d="M629.628 354.068 640.12 335.903C642.196 332.307 646.034 330.092 650.188 330.092L671.173 330.092C675.327 330.092 679.163 332.307 681.241 335.903L691.732 354.068C693.81 357.663 693.81 362.092 691.732 365.686L681.241 383.852C679.163 387.447 675.327 389.662 671.173 389.662L650.188 389.662C646.034 389.662 642.196 387.447 640.12 383.852L629.628 365.686C627.551 362.092 627.551 357.663 629.628 354.068Z" stroke="#FFFFFF" stroke-width="6.75538" stroke-linecap="butt" stroke-linejoin="miter" stroke-miterlimit="4" stroke-opacity="0.3" fill="none" fill-rule="nonzero" transform="matrix(-1 1.22465e-16 -1.22508e-16 -1.00035 657 752.004)"/></g><g><path d="M629.628 210.117 640.12 191.952C642.196 188.356 646.034 186.141 650.188 186.141L671.173 186.141C675.327 186.141 679.163 188.356 681.241 191.952L691.732 210.117C693.81 213.712 693.81 218.141 691.732 221.735L681.241 239.901C679.163 243.496 675.327 245.711 671.173 245.711L650.188 245.711C646.034 245.711 642.196 243.496 640.12 239.901L629.628 221.735C627.551 218.141 627.551 213.712 629.628 210.117Z" stroke="#FFFFFF" stroke-width="6.75538" stroke-linecap="butt" stroke-linejoin="miter" stroke-miterlimit="4" stroke-opacity="0.3" fill="none" fill-rule="nonzero" transform="matrix(-1 1.22465e-16 -1.22508e-16 -1.00035 657 752.004)"/></g><g><path d="M629.628 426.044 640.12 407.878C642.196 404.283 646.034 402.068 650.188 402.068L671.173 402.068C675.327 402.068 679.163 404.283 681.241 407.878L691.732 426.044C693.81 429.639 693.81 434.067 691.732 437.662L681.241 455.827C679.163 459.423 675.327 461.638 671.173 461.638L650.188 461.638C646.034 461.638 642.196 459.423 640.12 455.827L629.628 437.662C627.551 434.067 627.551 429.639 629.628 426.044Z" stroke="#FFFFFF" stroke-width="6.75538" stroke-linecap="butt" stroke-linejoin="miter" stroke-miterlimit="4" stroke-opacity="0.3" fill="none" fill-rule="nonzero" transform="matrix(-1 1.22465e-16 -1.22508e-16 -1.00035 657 752.004)"/></g><g><path d="M629.628 498.019 640.12 479.854C642.196 476.258 646.034 474.043 650.188 474.043L671.173 474.043C675.327 474.043 679.163 476.258 681.241 479.854L691.732 498.019C693.81 501.614 693.81 506.043 691.732 509.637L681.241 527.803C679.163 531.398 675.327 533.613 671.173 533.613L650.188 533.613C646.034 533.613 642.196 531.398 640.12 527.803L629.628 509.637C627.551 506.043 627.551 501.614 629.628 498.019Z" stroke="#FFFFFF" stroke-width="6.75538" stroke-linecap="butt" stroke-linejoin="miter" stroke-miterlimit="4" stroke-opacity="0.3" fill="none" fill-rule="nonzero" transform="matrix(-1 1.22465e-16 -1.22508e-16 -1.00035 657 752.004)"/></g><g><path d="M629.628 569.995 640.12 551.829C642.196 548.234 646.034 546.019 650.188 546.019L671.173 546.019C675.327 546.019 679.163 548.234 681.241 551.829L691.732 569.995C693.81 573.59 693.81 578.018 691.732 581.613L681.241 599.778C679.163 603.374 675.327 605.589 671.173 605.589L650.188 605.589C646.034 605.589 642.196 603.374 640.12 599.778L629.628 581.613C627.551 578.018 627.551 573.59 629.628 569.995Z" stroke="#FFFFFF" stroke-width="6.75538" stroke-linecap="butt" stroke-linejoin="miter" stroke-miterlimit="4" stroke-opacity="0.3" fill="none" fill-rule="nonzero" transform="matrix(-1 1.22465e-16 -1.22508e-16 -1.00035 657 752.004)"/></g><g><path d="M442.22 102.154 452.712 83.9886C454.789 80.3932 458.626 78.1783 462.781 78.1783L483.765 78.1783C487.919 78.1783 491.757 80.3932 493.833 83.9886L504.325 102.154C506.402 105.749 506.402 110.177 504.325 113.772L493.833 131.938C491.757 135.533 487.919 137.748 483.765 137.748L462.781 137.748C458.626 137.748 454.789 135.533 452.712 131.938L442.22 113.772C440.144 110.177 440.144 105.749 442.22 102.154Z" stroke="#FFFFFF" stroke-width="6.75538" stroke-linecap="butt" stroke-linejoin="miter" stroke-miterlimit="4" stroke-opacity="0.3" fill="none" fill-rule="nonzero" transform="matrix(-1 1.22465e-16 -1.22508e-16 -1.00035 657 752.004)"/></g><g><path d="M442.22 318.081 452.712 299.915C454.789 296.32 458.626 294.105 462.781 294.105L483.765 294.105C487.919 294.105 491.757 296.32 493.833 299.915L504.325 318.081C506.402 321.675 506.402 326.104 504.325 329.699L493.833 347.864C491.757 351.46 487.919 353.675 483.765 353.675L462.781 353.675C458.626 353.675 454.789 351.46 452.712 347.864L442.22 329.699C440.144 326.104 440.144 321.675 442.22 318.081Z" stroke="#FFFFFF" stroke-width="6.75538" stroke-linecap="butt" stroke-linejoin="miter" stroke-miterlimit="4" stroke-opacity="0.3" fill="none" fill-rule="nonzero" transform="matrix(-1 1.22465e-16 -1.22508e-16 -1.00035 657 752.004)"/></g><g><path d="M442.22 390.056 452.712 371.891C454.789 368.295 458.626 366.08 462.781 366.08L483.765 366.08C487.919 366.08 491.757 368.295 493.833 371.891L504.325 390.056C506.402 393.651 506.402 398.079 504.325 401.674L493.833 419.84C491.757 423.435 487.919 425.65 483.765 425.65L462.781 425.65C458.626 425.65 454.789 423.435 452.712 419.84L442.22 401.674C440.144 398.079 440.144 393.651 442.22 390.056Z" stroke="#FFFFFF" stroke-width="6.75538" stroke-linecap="butt" stroke-linejoin="miter" stroke-miterlimit="4" stroke-opacity="0.1" fill="none" fill-rule="nonzero" transform="matrix(-1 1.22465e-16 -1.22508e-16 -1.00035 657 752.004)"/></g><g><path d="M379.751 498.019 390.243 479.854C392.319 476.258 396.157 474.043 400.311 474.043L421.296 474.043C425.45 474.043 429.288 476.258 431.364 479.854L441.856 498.019C443.932 501.614 443.932 506.043 441.856 509.637L431.364 527.803C429.288 531.398 425.45 533.613 421.296 533.613L400.311 533.613C396.157 533.613 392.319 531.398 390.243 527.803L379.751 509.637C377.674 506.043 377.674 501.614 379.751 498.019Z" stroke="#FFFFFF" stroke-width="6.75538" stroke-linecap="butt" stroke-linejoin="miter" stroke-miterlimit="4" stroke-opacity="0.1" fill="none" fill-rule="nonzero" transform="matrix(-1 1.22465e-16 -1.22508e-16 -1.00035 657 752.004)"/></g><g><path d="M254.812 498.019 265.304 479.854C267.381 476.258 271.219 474.043 275.373 474.043L296.357 474.043C300.511 474.043 304.349 476.258 306.425 479.854L316.918 498.019C318.994 501.614 318.994 506.043 316.918 509.637L306.425 527.803C304.349 531.398 300.511 533.613 296.357 533.613L275.373 533.613C271.219 533.613 267.381 531.398 265.304 527.803L254.812 509.637C252.736 506.043 252.736 501.614 254.812 498.019Z" stroke="#FFFFFF" stroke-width="6.75538" stroke-linecap="butt" stroke-linejoin="miter" stroke-miterlimit="4" stroke-opacity="0.1" fill="none" fill-rule="nonzero" transform="matrix(-1 1.22465e-16 -1.22508e-16 -1.00035 657 752.004)"/></g><g><path d="M192.343 534.007 202.835 515.841C204.911 512.246 208.749 510.031 212.903 510.031L233.888 510.031C238.042 510.031 241.88 512.246 243.956 515.841L254.448 534.007C256.525 537.602 256.525 542.03 254.448 545.625L243.956 563.791C241.88 567.386 238.042 569.601 233.888 569.601L212.903 569.601C208.749 569.601 204.911 567.386 202.835 563.791L192.343 545.625C190.266 542.03 190.266 537.602 192.343 534.007Z" stroke="#FFFFFF" stroke-width="6.75538" stroke-linecap="butt" stroke-linejoin="miter" stroke-miterlimit="4" stroke-opacity="0.1" fill="none" fill-rule="nonzero" transform="matrix(-1 1.22465e-16 -1.22508e-16 -1.00035 657 752.004)"/></g><g><path d="M192.343 102.154 202.835 83.9886C204.911 80.3932 208.749 78.1783 212.903 78.1783L233.888 78.1783C238.042 78.1783 241.88 80.3932 243.956 83.9886L254.448 102.154C256.525 105.749 256.525 110.177 254.448 113.772L243.956 131.938C241.88 135.533 238.042 137.748 233.888 137.748L212.903 137.748C208.749 137.748 204.911 135.533 202.835 131.938L192.343 113.772C190.266 110.177 190.266 105.749 192.343 102.154Z" stroke="#FFFFFF" stroke-width="6.75538" stroke-linecap="butt" stroke-linejoin="miter" stroke-miterlimit="4" stroke-opacity="0.1" fill="none" fill-rule="nonzero" transform="matrix(-1 1.22465e-16 -1.22508e-16 -1.00035 657 752.004)"/></g><g><path d="M129.874 138.142 140.366 119.976C142.442 116.381 146.28 114.166 150.434 114.166L171.418 114.166C175.573 114.166 179.41 116.381 181.487 119.976L191.979 138.142C194.055 141.737 194.055 146.165 191.979 149.76L181.487 167.926C179.41 171.521 175.573 173.736 171.418 173.736L150.434 173.736C146.28 173.736 142.442 171.521 140.366 167.926L129.874 149.76C127.797 146.165 127.797 141.737 129.874 138.142Z" stroke="#FFFFFF" stroke-width="6.75538" stroke-linecap="butt" stroke-linejoin="miter" stroke-miterlimit="4" stroke-opacity="0.1" fill="none" fill-rule="nonzero" transform="matrix(-1 1.22465e-16 -1.22508e-16 -1.00035 657 752.004)"/></g><g><path d="M67.4042 102.154 77.8965 83.9886C79.9729 80.3932 83.8107 78.1783 87.9649 78.1783L108.949 78.1783C113.103 78.1783 116.941 80.3932 119.018 83.9886L129.51 102.154C131.586 105.749 131.586 110.177 129.51 113.772L119.018 131.938C116.941 135.533 113.103 137.748 108.949 137.748L87.9649 137.748C83.8107 137.748 79.9729 135.533 77.8965 131.938L67.4042 113.772C65.3279 110.177 65.3279 105.749 67.4042 102.154Z" stroke="#FFFFFF" stroke-width="6.75538" stroke-linecap="butt" stroke-linejoin="miter" stroke-miterlimit="4" stroke-opacity="0.1" fill="none" fill-rule="nonzero" transform="matrix(-1 1.22465e-16 -1.22508e-16 -1.00035 657 752.004)"/></g><g><path d="M67.4042 30.1786 77.8965 12.0129C79.9729 8.41794 83.8107 6.20267 87.9649 6.20267L108.949 6.20267C113.103 6.20267 116.941 8.41794 119.018 12.0129L129.51 30.1786C131.586 33.7733 131.586 38.2021 129.51 41.797L119.018 59.9626C116.941 63.5575 113.103 65.7728 108.949 65.7728L87.9649 65.7728C83.8107 65.7728 79.9729 63.5575 77.8965 59.9626L67.4042 41.797C65.3279 38.2021 65.3279 33.7733 67.4042 30.1786Z" stroke="#FFFFFF" stroke-width="6.75538" stroke-linecap="butt" stroke-linejoin="miter" stroke-miterlimit="4" stroke-opacity="0.1" fill="none" fill-rule="nonzero" transform="matrix(-1 1.22465e-16 -1.22508e-16 -1.00035 657 752.004)"/></g><g><path d="M129.874 66.1663 140.366 48.0006C142.442 44.4057 146.28 42.1904 150.434 42.1904L171.418 42.1904C175.573 42.1904 179.41 44.4057 181.487 48.0006L191.979 66.1663C194.055 69.7612 194.055 74.1897 191.979 77.7844L181.487 95.9501C179.41 99.5455 175.573 101.76 171.418 101.76L150.434 101.76C146.28 101.76 142.442 99.5455 140.366 95.9501L129.874 77.7844C127.797 74.1897 127.797 69.7612 129.874 66.1663Z" stroke="#FFFFFF" stroke-width="6.75538" stroke-linecap="butt" stroke-linejoin="miter" stroke-miterlimit="4" stroke-opacity="0.1" fill="none" fill-rule="nonzero" transform="matrix(-1 1.22465e-16 -1.22508e-16 -1.00035 657 752.004)"/></g><g><path d="M129.874 354.068 140.366 335.903C142.442 332.307 146.28 330.092 150.434 330.092L171.418 330.092C175.573 330.092 179.41 332.307 181.487 335.903L191.979 354.068C194.055 357.663 194.055 362.092 191.979 365.686L181.487 383.852C179.41 387.447 175.573 389.662 171.418 389.662L150.434 389.662C146.28 389.662 142.442 387.447 140.366 383.852L129.874 365.686C127.797 362.092 127.797 357.663 129.874 354.068Z" stroke="#FFFFFF" stroke-width="6.75538" stroke-linecap="butt" stroke-linejoin="miter" stroke-miterlimit="4" stroke-opacity="0.1" fill="none" fill-rule="nonzero" transform="matrix(-1 1.22465e-16 -1.22508e-16 -1.00035 657 752.004)"/></g><g><path d="M4.93492 354.068 15.4271 335.903C17.5036 332.307 21.3414 330.092 25.4955 330.092L46.48 330.092C50.6341 330.092 54.4719 332.307 56.5483 335.903L67.0405 354.068C69.1168 357.663 69.1168 362.092 67.0405 365.686L56.5483 383.852C54.4719 387.447 50.6341 389.662 46.48 389.662L25.4955 389.662C21.3414 389.662 17.5036 387.447 15.4271 383.852L4.93492 365.686C2.85861 362.092 2.85861 357.663 4.93492 354.068Z" stroke="#FFFFFF" stroke-width="6.75538" stroke-linecap="butt" stroke-linejoin="miter" stroke-miterlimit="4" stroke-opacity="0.1" fill="none" fill-rule="nonzero" transform="matrix(-1 1.22465e-16 -1.22508e-16 -1.00035 657 752.004)"/></g><g><path d="M67.4042 318.081 77.8965 299.915C79.9729 296.32 83.8107 294.105 87.9649 294.105L108.949 294.105C113.103 294.105 116.941 296.32 119.018 299.915L129.51 318.081C131.586 321.675 131.586 326.104 129.51 329.699L119.018 347.864C116.941 351.46 113.103 353.675 108.949 353.675L87.9649 353.675C83.8107 353.675 79.9729 351.46 77.8965 347.864L67.4042 329.699C65.3279 326.104 65.3279 321.675 67.4042 318.081Z" stroke="#FFFFFF" stroke-width="6.75538" stroke-linecap="butt" stroke-linejoin="miter" stroke-miterlimit="4" stroke-opacity="0.1" fill="none" fill-rule="nonzero" transform="matrix(-1 1.22465e-16 -1.22508e-16 -1.00035 657 752.004)"/></g><g><path d="M67.4042 390.056 77.8965 371.891C79.9729 368.295 83.8107 366.08 87.9649 366.08L108.949 366.08C113.103 366.08 116.941 368.295 119.018 371.891L129.51 390.056C131.586 393.651 131.586 398.079 129.51 401.674L119.018 419.84C116.941 423.435 113.103 425.65 108.949 425.65L87.9649 425.65C83.8107 425.65 79.9729 423.435 77.8965 419.84L67.4042 401.674C65.3279 398.079 65.3279 393.651 67.4042 390.056Z" stroke="#FFFFFF" stroke-width="6.75538" stroke-linecap="butt" stroke-linejoin="miter" stroke-miterlimit="4" stroke-opacity="0.1" fill="none" fill-rule="nonzero" transform="matrix(-1 1.22465e-16 -1.22508e-16 -1.00035 657 752.004)"/></g><g><path d="M67.4042 462.032 77.8965 443.866C79.9729 440.271 83.8107 438.056 87.9649 438.056L108.949 438.056C113.103 438.056 116.941 440.271 119.018 443.866L129.51 462.032C131.586 465.626 131.586 470.055 129.51 473.65L119.018 491.815C116.941 495.411 113.103 497.626 108.949 497.626L87.9649 497.626C83.8107 497.626 79.9729 495.411 77.8965 491.815L67.4042 473.65C65.3279 470.055 65.3279 465.626 67.4042 462.032Z" stroke="#FFFFFF" stroke-width="6.75538" stroke-linecap="butt" stroke-linejoin="miter" stroke-miterlimit="4" stroke-opacity="0.1" fill="none" fill-rule="nonzero" transform="matrix(-1 1.22465e-16 -1.22508e-16 -1.00035 657 752.004)"/></g><g><path d="M442.22 462.032 452.712 443.866C454.789 440.271 458.626 438.056 462.781 438.056L483.765 438.056C487.919 438.056 491.757 440.271 493.833 443.866L504.325 462.032C506.402 465.626 506.402 470.055 504.325 473.65L493.833 491.815C491.757 495.411 487.919 497.626 483.765 497.626L462.781 497.626C458.626 497.626 454.789 495.411 452.712 491.815L442.22 473.65C440.144 470.055 440.144 465.626 442.22 462.032Z" stroke="#FFFFFF" stroke-width="6.75538" stroke-linecap="butt" stroke-linejoin="miter" stroke-miterlimit="4" stroke-opacity="0.1" fill="none" fill-rule="nonzero" transform="matrix(-1 1.22465e-16 -1.22508e-16 -1.00035 657 752.004)"/></g><g><path d="M442.22 534.007 452.712 515.841C454.789 512.246 458.626 510.031 462.781 510.031L483.765 510.031C487.919 510.031 491.757 512.246 493.833 515.841L504.325 534.007C506.402 537.602 506.402 542.03 504.325 545.625L493.833 563.791C491.757 567.386 487.919 569.601 483.765 569.601L462.781 569.601C458.626 569.601 454.789 567.386 452.712 563.791L442.22 545.625C440.144 542.03 440.144 537.602 442.22 534.007Z" stroke="#FFFFFF" stroke-width="6.75538" stroke-linecap="butt" stroke-linejoin="miter" stroke-miterlimit="4" stroke-opacity="0.1" fill="none" fill-rule="nonzero" transform="matrix(-1 1.22465e-16 -1.22508e-16 -1.00035 657 752.004)"/></g><g><path d="M504.689 498.019 515.181 479.854C517.258 476.258 521.096 474.043 525.25 474.043L546.234 474.043C550.388 474.043 554.226 476.258 556.303 479.854L566.795 498.019C568.871 501.614 568.871 506.043 566.795 509.637L556.303 527.803C554.226 531.398 550.388 533.613 546.234 533.613L525.25 533.613C521.096 533.613 517.258 531.398 515.181 527.803L504.689 509.637C502.613 506.043 502.613 501.614 504.689 498.019Z" stroke="#FFFFFF" stroke-width="6.75538" stroke-linecap="butt" stroke-linejoin="miter" stroke-miterlimit="4" stroke-opacity="0.1" fill="none" fill-rule="nonzero" transform="matrix(-1 1.22465e-16 -1.22508e-16 -1.00035 657 752.004)"/></g><g><path d="M567.159 605.983 577.651 587.817C579.727 584.221 583.565 582.007 587.719 582.007L608.703 582.007C612.858 582.007 616.695 584.221 618.772 587.817L629.264 605.983C631.34 609.577 631.34 614.006 629.264 617.6L618.772 635.766C616.695 639.362 612.858 641.576 608.703 641.576L587.719 641.576C583.565 641.576 579.727 639.362 577.651 635.766L567.159 617.6C565.082 614.006 565.082 609.577 567.159 605.983Z" stroke="#FFFFFF" stroke-width="6.75538" stroke-linecap="butt" stroke-linejoin="miter" stroke-miterlimit="4" stroke-opacity="0.1" fill="none" fill-rule="nonzero" transform="matrix(-1 1.22465e-16 -1.22508e-16 -1.00035 657 752.004)"/></g><g><path d="M567.159 677.958 577.651 659.792C579.727 656.197 583.565 653.982 587.719 653.982L608.703 653.982C612.858 653.982 616.695 656.197 618.772 659.792L629.264 677.958C631.34 681.553 631.34 685.981 629.264 689.579L618.772 707.743C616.695 711.335 612.858 713.555 608.703 713.555L587.719 713.555C583.565 713.555 579.727 711.335 577.651 707.743L567.159 689.579C565.082 685.981 565.082 681.553 567.159 677.958Z" stroke="#FFFFFF" stroke-width="6.75538" stroke-linecap="butt" stroke-linejoin="miter" stroke-miterlimit="4" stroke-opacity="0.1" fill="none" fill-rule="nonzero" transform="matrix(-1 1.22465e-16 -1.22508e-16 -1.00035 657 752.004)"/></g><g><path d="M192.343 318.081 202.835 299.915C204.911 296.32 208.749 294.105 212.903 294.105L233.888 294.105C238.042 294.105 241.88 296.32 243.956 299.915L254.448 318.081C256.525 321.675 256.525 326.104 254.448 329.699L243.956 347.864C241.88 351.46 238.042 353.675 233.888 353.675L212.903 353.675C208.749 353.675 204.911 351.46 202.835 347.864L192.343 329.699C190.266 326.104 190.266 321.675 192.343 318.081Z" stroke="#FFFFFF" stroke-width="6.75538" stroke-linecap="butt" stroke-linejoin="miter" stroke-miterlimit="4" stroke-opacity="0.3" fill="none" fill-rule="nonzero" transform="matrix(-1 1.22465e-16 -1.22508e-16 -1.00035 657 752.004)"/></g><g><path d="M442.22 174.13 452.712 155.964C454.789 152.369 458.626 150.154 462.781 150.154L483.765 150.154C487.919 150.154 491.757 152.369 493.833 155.964L504.325 174.13C506.402 177.724 506.402 182.153 504.325 185.748L493.833 203.913C491.757 207.509 487.919 209.724 483.765 209.724L462.781 209.724C458.626 209.724 454.789 207.509 452.712 203.913L442.22 185.748C440.144 182.153 440.144 177.724 442.22 174.13Z" stroke="#FFFFFF" stroke-width="6.75538" stroke-linecap="butt" stroke-linejoin="miter" stroke-miterlimit="4" stroke-opacity="0.3" fill="none" fill-rule="nonzero" transform="matrix(-1 1.22465e-16 -1.22508e-16 -1.00035 657 752.004)"/></g><g><path d="M192.343 174.13 202.835 155.964C204.911 152.369 208.749 150.154 212.903 150.154L233.888 150.154C238.042 150.154 241.88 152.369 243.956 155.964L254.448 174.13C256.525 177.724 256.525 182.153 254.448 185.748L243.956 203.913C241.88 207.509 238.042 209.724 233.888 209.724L212.903 209.724C208.749 209.724 204.911 207.509 202.835 203.913L192.343 185.748C190.266 182.153 190.266 177.724 192.343 174.13Z" stroke="#FFFFFF" stroke-width="6.75538" stroke-linecap="butt" stroke-linejoin="miter" stroke-miterlimit="4" stroke-opacity="0.3" fill="none" fill-rule="nonzero" transform="matrix(-1 1.22465e-16 -1.22508e-16 -1.00035 657 752.004)"/></g><g><path d="M192.343 390.056 202.835 371.891C204.911 368.295 208.749 366.08 212.903 366.08L233.888 366.08C238.042 366.08 241.88 368.295 243.956 371.891L254.448 390.056C256.525 393.651 256.525 398.079 254.448 401.674L243.956 419.84C241.88 423.435 238.042 425.65 233.888 425.65L212.903 425.65C208.749 425.65 204.911 423.435 202.835 419.84L192.343 401.674C190.266 398.079 190.266 393.651 192.343 390.056Z" stroke="#FFFFFF" stroke-width="6.75538" stroke-linecap="butt" stroke-linejoin="miter" stroke-miterlimit="4" stroke-opacity="0.3" fill="none" fill-rule="nonzero" transform="matrix(-1 1.22465e-16 -1.22508e-16 -1.00035 657 752.004)"/></g><g><path d="M442.22 246.105 452.712 227.94C454.789 224.344 458.626 222.129 462.781 222.129L483.765 222.129C487.919 222.129 491.757 224.344 493.833 227.94L504.325 246.105C506.402 249.7 506.402 254.128 504.325 257.723L493.833 275.889C491.757 279.484 487.919 281.699 483.765 281.699L462.781 281.699C458.626 281.699 454.789 279.484 452.712 275.889L442.22 257.723C440.144 254.128 440.144 249.7 442.22 246.105Z" stroke="#FFFFFF" stroke-width="6.75538" stroke-linecap="butt" stroke-linejoin="miter" stroke-miterlimit="4" stroke-opacity="0.3" fill="none" fill-rule="nonzero" transform="matrix(-1 1.22465e-16 -1.22508e-16 -1.00035 657 752.004)"/></g><g><path d="M192.343 246.105 202.835 227.94C204.911 224.344 208.749 222.129 212.903 222.129L233.888 222.129C238.042 222.129 241.88 224.344 243.956 227.94L254.448 246.105C256.525 249.7 256.525 254.128 254.448 257.723L243.956 275.889C241.88 279.484 238.042 281.699 233.888 281.699L212.903 281.699C208.749 281.699 204.911 279.484 202.835 275.889L192.343 257.723C190.266 254.128 190.266 249.7 192.343 246.105Z" stroke="#FFFFFF" stroke-width="6.75538" stroke-linecap="butt" stroke-linejoin="miter" stroke-miterlimit="4" stroke-opacity="0.3" fill="none" fill-rule="nonzero" transform="matrix(-1 1.22465e-16 -1.22508e-16 -1.00035 657 752.004)"/></g><g><path d="M192.343 462.032 202.835 443.866C204.911 440.271 208.749 438.056 212.903 438.056L233.888 438.056C238.042 438.056 241.88 440.271 243.956 443.866L254.448 462.032C256.525 465.626 256.525 470.055 254.448 473.65L243.956 491.815C241.88 495.411 238.042 497.626 233.888 497.626L212.903 497.626C208.749 497.626 204.911 495.411 202.835 491.815L192.343 473.65C190.266 470.055 190.266 465.626 192.343 462.032Z" stroke="#FFFFFF" stroke-width="6.75538" stroke-linecap="butt" stroke-linejoin="miter" stroke-miterlimit="4" stroke-opacity="0.3" fill="none" fill-rule="nonzero" transform="matrix(-1 1.22465e-16 -1.22508e-16 -1.00035 657 752.004)"/></g></g></g></g></g></svg>